{"title":"Hitman (Unrated) 2007 BRRip H264 AAC-MS","uid":5631025,"size":1505743382,"categoryP":"video","categoryS":"hd___movies","magnet":"?xt=urn:btih:6ea79eaa3d62b2cf2d2f668a4591404472fc929b&amp;dn=Hitman+%28Unrated%29+2007+BRRip+H264+AAC-MS&amp;tr=udp%3A%2F%2Ftracker.openbittorrent.com%3A80&amp;tr=udp%3A%2F%2Fopen.demonii.com%3A1337&amp;tr=udp%3A%2F%2Ftracker.coppersurfer.tk%3A6969&amp;tr=udp%3A%2F%2Fexodus.desync.com%3A6969","seeders":0,"leechers":1,"uploader":"rev-x","files":7,"time":1276679877,"description":"Hitman 2007 BRRip H264 AAC-MS.mp4\n      Format : MPEG-4\n      Format profile : Base Media / Version 2\n      Codec ID : mp42\n      File size : 1.40 GiB\n      Duration : 1h 34mn\n      Overall bit rate : 2 124 Kbps\n      \n   Video #1\n      Format : AVC\n      Format/Info : Advanced Video Codec\n      Format profile : &lt;a class=&quot;__cf_email__&quot; href=&quot;/cdn-cgi/l/email-protection&quot; data-cfemail=&quot;95ddfcf2fdd5d9a1bba4&quot;&gt;[email&amp;#160;protected]&lt;/a&gt;&lt;script cf-hash='f9e31' type=&quot;text/javascript&quot;&gt;\n/* &lt;![CDATA[ */!function(){try{var t=&quot;currentScript&quot;in document?document.currentScript:function(){for(var t=document.getElementsByTagName(&quot;script&quot;),e=t.length;e--;)if(t[e].getAttribute(&quot;cf-hash&quot;))return t[e]}();if(t&amp;&amp;t.previousSibling){var e,r,n,i,c=t.previousSibling,a=c.getAttribute(&quot;data-cfemail&quot;);if(a){for(e=&quot;&quot;,r=parseInt(a.substr(0,2),16),n=2;a.length-n;n+=2)i=parseInt(a.substr(n,2),16)^r,e+=String.fromCharCode(i);e=document.createTextNode(e),c.parentNode.replaceChild(e,c)}}}catch(u){}}();/* ]]&gt; */&lt;/script&gt;\n      Format settings, CABAC : Yes\n      Format settings, ReFrames : 3 frames\n      Codec ID : avc1\n      Codec ID/Info : Advanced Video Coding\n      Duration : 1h 34mn\n      Bit rate mode : Variable\n      Bit rate : 1 800 Kbps\n      Width : 1 280 pixels\n      Height : 528 pixels\n      Display aspect ratio : 2.424\n      Frame rate mode : Variable\n      Frame rate : 23.976 fps\n      Minimum frame rate : 22.879 fps\n      Maximum frame rate : 25.184 fps\n      Resolution : 24 bits\n      Colorimetry : 4:2:0\n      Scan type : Progressive\n      Bits/(Pixel*Frame) : 0.111\n      Stream size : 1.18 GiB (85%)\n      Writing library : x264 core 65\n\n   Audio #2\n      Format : AAC\n      Format/Info : Advanced Audio Codec\n      Format version : Version 4\n      Format profile : LC\n      Format settings, SBR : No\n      Codec ID : 40\n      Duration : 1h 34mn\n      Bit rate mode : Variable\n      Bit rate : 320 Kbps\n      Maximum bit rate : 457 Kbps\n      Channel(s) : 6 channels\n      Channel positions : Front: L C R, Rear: L R, LFE\n      Sampling rate : 48.0 KHz\n      Resolution : 16 bits\n      Stream size : 216 MiB (15%)\n      Language: English","torrent":{"xt":"urn:btih:6ea79eaa3d62b2cf2d2f668a4591404472fc929b","amp;dn":"Hitman+%28Unrated%29+2007+BRRip+H264+AAC-MS","amp;tr":["udp%3A%2F%2Ftracker.openbittorrent.com%3A80","udp%3A%2F%2Fopen.demonii.com%3A1337","udp%3A%2F%2Ftracker.coppersurfer.tk%3A6969","udp%3A%2F%2Fexodus.desync.com%3A6969"],"infoHash":"6ea79eaa3d62b2cf2d2f668a4591404472fc929b","infoHashBuffer":{"type":"Buffer","data":[110,167,158,170,61,98,178,207,45,47,102,138,69,145,64,68,114,252,146,155]},"announce":[],"urlList":[]}}